<svg width="479" height="347" viewBox="0 0 479 347" fill="none" xmlns="http://www.w3.org/2000/svg">
<g clip-path="url(#clip0_2_9)">
<path d="M259.206 64.6216C259.088 78.0686 258.102 91.494 256.254 104.814C256.189 105.282 256.119 105.75 256.054 106.217L129.977 105.514C129.606 105.049 129.242 104.579 128.889 104.103C127.712 102.529 126.609 100.91 125.596 99.2344C120.728 91.1643 118.5 81.7158 120.733 75.1969L120.773 75.0956C121.255 73.6681 122.015 72.3497 123.008 71.2163C128.1 65.4917 138.394 66.4459 147.736 71.0666C139.357 61.9053 132.685 50.3451 132.178 40.0263C131.681 29.9614 136.95 22.7713 142.665 16.661C142.852 16.459 143.04 16.2626 143.227 16.0663C143.318 15.9653 143.415 15.8699 143.506 15.7689C147.964 11.1124 153.163 6.52205 160.687 7.07732C168.939 7.6874 178.088 14.5913 184.503 22.6362C190.918 30.6755 195.18 39.8082 199.501 48.7213C203.828 57.6288 208.509 66.7639 215.451 74.3775C206.048 62.4975 198.466 48.9807 195.666 35.8346C192.865 22.6885 195.33 10.0626 203.71 3.87125C206.255 2.04957 209.199 0.863046 212.296 0.41096C212.658 0.350943 213.025 0.302224 213.398 0.259173C221.156 -0.622498 230.419 2.05752 238.3 8.46365C246.979 15.5173 252.996 25.974 255.99 35.9005C258.984 45.8271 259.303 55.3834 259.206 64.6216Z" fill="#F2F2F2"/>
<path d="M176.719 105.775L174.308 105.761C173.543 105.283 172.774 104.811 172.001 104.344C171.523 104.042 171.039 103.752 170.554 103.456C162.558 98.5778 154.511 93.8985 146.414 89.4182C138.325 84.9342 130.195 80.6568 122.024 76.586C121.807 76.4918 121.631 76.3248 121.524 76.114C121.418 75.9032 121.39 75.6619 121.443 75.4321C121.452 75.402 121.465 75.3735 121.483 75.3477C121.597 75.134 121.852 75.0452 122.224 75.2278C123.226 75.7297 124.234 76.2317 125.236 76.7449C133.429 80.8854 141.587 85.2325 149.71 89.7863C157.827 94.3381 165.898 99.0909 173.922 104.045C174.091 104.147 174.26 104.255 174.429 104.358C175.194 104.83 175.954 105.302 176.719 105.775Z" fill="white"/>
<path d="M207.804 105.948L206.313 105.94C205.977 105.47 205.646 105 205.31 104.53C197.41 93.4648 189.512 82.3997 181.616 71.3347C168.684 53.2195 155.756 35.1042 142.833 16.9891C142.756 16.8915 142.699 16.7801 142.665 16.661C142.554 16.2599 142.849 16.0247 143.227 16.0663C143.387 16.089 143.54 16.1454 143.675 16.2318C143.811 16.3181 143.927 16.4324 144.015 16.567C151.265 26.726 158.513 36.8812 165.76 47.0327C178.624 65.0573 191.486 83.0801 204.347 101.101C205.165 102.245 205.983 103.394 206.801 104.538C207.137 105.008 207.473 105.478 207.804 105.948Z" fill="white"/>
<path d="M241.016 97.301C240.94 99.8105 240.773 102.28 240.556 104.727C240.514 105.195 240.472 105.662 240.43 106.13L238.866 106.122C238.913 105.654 238.961 105.186 239.003 104.718C239.334 101.183 239.568 97.6088 239.6 93.9372C239.642 83.7578 238.649 73.6004 236.636 63.6214C234.497 52.8767 231.425 42.3384 227.455 32.1259C223.289 21.3549 218.266 10.9345 212.434 0.964468C212.324 0.801972 212.275 0.605948 212.296 0.410963C212.361 -0.0342751 212.954 -0.166316 213.398 0.259176C213.486 0.342655 213.561 0.437999 213.622 0.54243C214.344 1.78167 215.052 3.0246 215.747 4.27121C221.364 14.2966 226.171 24.7533 230.124 35.5419C233.889 45.7878 236.753 56.342 238.683 67.0846C240.491 77.0508 241.273 87.1758 241.016 97.301Z" fill="white"/>
<path d="M347.678 105.174H4.92376C3.61824 105.175 2.36652 105.693 1.44339 106.616C0.520258 107.538 0.00114528 108.788 0 110.092V342.082C0.00114528 343.386 0.520258 344.636 1.44339 345.558C2.36652 346.48 3.61824 346.999 4.92376 347H347.678C348.39 347 349.093 346.846 349.74 346.548C350.386 346.25 350.96 345.815 351.422 345.274C351.461 345.232 351.497 345.186 351.529 345.139C351.823 344.78 352.061 344.379 352.235 343.949C352.483 343.357 352.61 342.723 352.608 342.082V110.092C352.606 108.787 352.086 107.536 351.162 106.614C350.238 105.692 348.985 105.174 347.678 105.174ZM351.202 342.082C351.202 342.768 351 343.439 350.62 344.011C350.283 344.514 349.824 344.925 349.287 345.206C348.79 345.463 348.238 345.597 347.678 345.596H4.92376C3.99111 345.594 3.09698 345.224 2.43749 344.565C1.778 343.906 1.407 343.013 1.40587 342.082V110.092C1.407 109.16 1.778 108.267 2.43749 107.609C3.09698 106.95 3.99111 106.579 4.92376 106.578H347.678C348.612 106.578 349.507 106.948 350.168 107.607C350.828 108.266 351.2 109.159 351.202 110.092V342.082Z" fill="#3F3D56"/>
<path d="M351.902 124.886H0.70166V126.292H351.902V124.886Z" fill="#3F3D56"/>
<path d="M12.6664 119.937C14.9986 119.937 16.8892 118.048 16.8892 115.719C16.8892 113.389 14.9986 111.501 12.6664 111.501C10.3342 111.501 8.44354 113.389 8.44354 115.719C8.44354 118.048 10.3342 119.937 12.6664 119.937Z" fill="#3F3D56"/>
<path d="M24.8071 119.937C27.1393 119.937 29.0299 118.048 29.0299 115.719C29.0299 113.389 27.1393 111.501 24.8071 111.501C22.4749 111.501 20.5842 113.389 20.5842 115.719C20.5842 118.048 22.4749 119.937 24.8071 119.937Z" fill="#3F3D56"/>
<path d="M36.9478 119.937C39.28 119.937 41.1706 118.048 41.1706 115.719C41.1706 113.389 39.28 111.501 36.9478 111.501C34.6155 111.501 32.7249 113.389 32.7249 115.719C32.7249 118.048 34.6155 119.937 36.9478 119.937Z" fill="#3F3D56"/>
<path d="M264.446 157.431H88.2687C86.3219 157.431 84.4547 156.658 83.0781 155.283C81.7014 153.908 80.928 152.043 80.928 150.098C80.928 148.154 81.7014 146.289 83.0781 144.914C84.4547 143.539 86.3219 142.766 88.2687 142.766H264.446C266.392 142.766 268.26 143.539 269.636 144.914C271.013 146.289 271.786 148.154 271.786 150.098C271.786 152.043 271.013 153.908 269.636 155.283C268.26 156.658 266.392 157.431 264.446 157.431ZM88.2687 143.894C86.6214 143.894 85.0415 144.548 83.8766 145.711C82.7118 146.875 82.0574 148.453 82.0574 150.098C82.0574 151.744 82.7118 153.322 83.8766 154.485C85.0415 155.649 86.6214 156.303 88.2687 156.303H264.446C266.093 156.303 267.673 155.649 268.838 154.485C270.003 153.322 270.657 151.744 270.657 150.098C270.657 148.453 270.003 146.875 268.838 145.711C267.673 144.548 266.093 143.894 264.446 143.894H88.2687Z" fill="#3F3D56"/>
<path d="M102.897 243.509H35.1365C32.5915 243.506 30.1515 242.495 28.3519 240.698C26.5523 238.9 25.54 236.463 25.5371 233.921V202.336C25.54 199.794 26.5523 197.357 28.3519 195.559C30.1515 193.762 32.5915 192.751 35.1365 192.748H102.897C105.442 192.751 107.882 193.762 109.681 195.559C111.481 197.357 112.493 199.794 112.496 202.336V233.921C112.493 236.463 111.481 238.9 109.681 240.698C107.882 242.495 105.442 243.506 102.897 243.509Z" fill="white"/>
<path d="M210.184 243.509H142.424C139.879 243.506 137.439 242.495 135.639 240.698C133.839 238.9 132.827 236.463 132.824 233.921V202.336C132.827 199.794 133.839 197.357 135.639 195.559C137.439 193.762 139.879 192.751 142.424 192.748H210.184C212.729 192.751 215.169 193.762 216.969 195.559C218.768 197.357 219.781 199.794 219.783 202.336V233.921C219.781 236.463 218.768 238.9 216.969 240.698C215.169 242.495 212.729 243.506 210.184 243.509Z" fill="white"/>
<path d="M317.471 243.509H249.711C247.166 243.506 244.726 242.495 242.926 240.698C241.127 238.9 240.114 236.463 240.112 233.921V202.336C240.114 199.794 241.127 197.357 242.926 195.559C244.726 193.762 247.166 192.751 249.711 192.748H317.471C320.016 192.751 322.456 193.762 324.256 195.559C326.055 197.357 327.068 199.794 327.071 202.336V233.921C327.068 236.463 326.055 238.9 324.256 240.698C322.456 242.495 320.016 243.506 317.471 243.509Z" fill="white"/>
<path d="M102.897 310.063H35.1365C32.5915 310.06 30.1515 309.049 28.3519 307.251C26.5523 305.454 25.54 303.017 25.5371 300.474V268.89C25.54 266.348 26.5523 263.91 28.3519 262.113C30.1515 260.315 32.5915 259.304 35.1365 259.301H102.897C105.442 259.304 107.882 260.315 109.681 262.113C111.481 263.91 112.493 266.348 112.496 268.89V300.474C112.493 303.017 111.481 305.454 109.681 307.251C107.882 309.049 105.442 310.06 102.897 310.063Z" fill="white"/>
<path d="M210.184 310.063H142.424C139.879 310.06 137.439 309.049 135.639 307.251C133.839 305.454 132.827 303.017 132.824 300.474V268.89C132.827 266.348 133.839 263.91 135.639 262.113C137.439 260.315 139.879 259.304 142.424 259.301H210.184C212.729 259.304 215.169 260.315 216.969 262.113C218.768 263.91 219.781 266.348 219.783 268.89V300.474C219.781 303.017 218.768 305.454 216.969 307.251C215.169 309.049 212.729 310.06 210.184 310.063Z" fill="white"/>
<path d="M317.471 310.063H249.711C247.166 310.06 244.726 309.049 242.926 307.251C241.127 305.454 240.114 303.017 240.112 300.474V268.89C240.114 266.348 241.127 263.91 242.926 262.113C244.726 260.315 247.166 259.304 249.711 259.301H317.471C320.016 259.304 322.456 260.315 324.256 262.113C326.055 263.91 327.068 266.348 327.071 268.89V300.474C327.068 303.017 326.055 305.454 324.256 307.251C322.456 309.049 320.016 310.06 317.471 310.063Z" fill="white"/>
<path d="M393.639 158.907C403.931 158.907 412.273 150.574 412.273 140.295C412.273 130.015 403.931 121.682 393.639 121.682C383.348 121.682 375.005 130.015 375.005 140.295C375.005 150.574 383.348 158.907 393.639 158.907Z" fill="#2F2E41"/>
<path d="M346.957 237.118C346.544 236.334 346.308 235.47 346.266 234.585C346.224 233.7 346.377 232.817 346.714 231.997C347.05 231.178 347.563 230.442 348.215 229.842C348.867 229.241 349.643 228.791 350.488 228.523L374.1 178.631L384.901 186.196L358.295 232.859C358.652 234.307 358.465 235.836 357.769 237.156C357.073 238.475 355.917 239.494 354.52 240.019C353.122 240.544 351.581 240.538 350.187 240.004C348.793 239.469 347.644 238.443 346.957 237.118Z" fill="#FFB8B8"/>
<path d="M367.19 185.255C367.078 184.881 367.047 184.487 367.101 184.1C367.155 183.714 367.292 183.343 367.502 183.014L374.844 171.518C375.66 169.695 377.166 168.269 379.033 167.553C380.9 166.838 382.975 166.891 384.803 167.701C386.631 168.511 388.063 170.012 388.784 171.874C389.506 173.737 389.459 175.81 388.653 177.638L384.955 190.809C384.849 191.185 384.664 191.534 384.411 191.832C384.159 192.13 383.845 192.37 383.491 192.535C383.137 192.701 382.751 192.789 382.36 192.792C381.97 192.796 381.583 192.715 381.226 192.556L368.685 186.955C368.328 186.795 368.01 186.561 367.752 186.268C367.494 185.974 367.302 185.629 367.19 185.255Z" fill="white"/>
<path d="M426.602 242.065C425.738 241.864 424.929 241.477 424.231 240.931C423.533 240.384 422.964 239.691 422.563 238.901C422.162 238.111 421.94 237.243 421.911 236.357C421.883 235.472 422.049 234.591 422.398 233.777L400.036 183.313L412.828 180.095L430.787 230.711C432.118 231.388 433.154 232.528 433.699 233.917C434.243 235.305 434.259 236.845 433.744 238.245C433.228 239.644 432.216 240.806 430.9 241.51C429.583 242.214 428.054 242.411 426.602 242.065Z" fill="#FFB8B8"/>
<path d="M432.698 333.534L426.193 335.9L413.962 311.964L423.562 308.472L432.698 333.534Z" fill="#FFB8B8"/>
<path d="M420.87 335.733L433.415 331.171L436.291 339.06L415.847 346.495C415.469 345.459 415.3 344.359 415.348 343.257C415.396 342.156 415.66 341.075 416.127 340.075C416.593 339.076 417.252 338.178 418.066 337.433C418.88 336.688 419.833 336.11 420.87 335.733Z" fill="#2F2E41"/>
<path d="M414.94 318.394L390.158 275.076C389.919 274.657 389.795 274.182 389.8 273.7C389.805 273.217 389.939 272.745 390.187 272.331L401.347 253.754C401.611 253.313 401.995 252.956 402.455 252.725C402.914 252.494 403.43 252.397 403.942 252.447C404.454 252.497 404.941 252.691 405.348 253.006C405.754 253.321 406.062 253.745 406.237 254.228L427.335 312.586C427.567 313.221 427.553 313.92 427.295 314.545C427.037 315.171 426.554 315.677 425.941 315.964L418.466 319.501C418.105 319.671 417.711 319.76 417.311 319.76C416.831 319.76 416.358 319.635 415.942 319.395C415.526 319.155 415.18 318.81 414.94 318.394Z" fill="#2F2E41"/>
<path d="M391.943 160.631C399.603 160.631 405.812 154.429 405.812 146.778C405.812 139.128 399.603 132.925 391.943 132.925C384.284 132.925 378.074 139.128 378.074 146.778C378.074 154.429 384.284 160.631 391.943 160.631Z" fill="#FFB8B8"/>
<path d="M372.216 209.526C361.294 185.336 372.305 171.816 377.546 167.127C379.056 165.774 381.012 165.027 383.04 165.028H402.578C403.981 165.028 405.36 165.386 406.586 166.068C407.811 166.751 408.842 167.735 409.579 168.927C410.317 170.119 410.737 171.479 410.8 172.879C410.863 174.279 410.567 175.672 409.939 176.926L396.879 203.016L372.323 209.761L372.216 209.526Z" fill="white"/>
<path d="M400.798 192.357C400.441 192.198 400.123 191.963 399.866 191.67C399.608 191.376 399.416 191.031 399.305 190.657L395.395 177.593C394.548 175.784 394.453 173.714 395.132 171.835C395.811 169.957 397.207 168.424 399.015 167.573C400.823 166.721 402.895 166.62 404.778 167.291C406.66 167.963 408.2 169.352 409.059 171.155L416.62 182.561C416.835 182.887 416.978 183.255 417.039 183.641C417.099 184.026 417.076 184.42 416.97 184.796C416.864 185.172 416.679 185.521 416.426 185.818C416.173 186.116 415.859 186.356 415.505 186.521L403.063 192.338C402.709 192.504 402.324 192.592 401.933 192.595C401.542 192.598 401.155 192.517 400.798 192.357Z" fill="white"/>
<path d="M388.011 340.075L381.088 340.074L377.795 313.403L388.012 313.403L388.011 340.075Z" fill="#FFB8B8"/>
<path d="M376.143 338.098H389.494V346.495H367.737C367.737 345.392 367.954 344.3 368.377 343.282C368.799 342.263 369.419 341.337 370.199 340.558C370.98 339.778 371.906 339.16 372.926 338.738C373.946 338.316 375.039 338.098 376.143 338.098Z" fill="#2F2E41"/>
<path d="M385.077 329.893L373.994 328.616C373.635 328.574 373.288 328.462 372.973 328.285C372.659 328.109 372.382 327.871 372.16 327.586C371.938 327.302 371.775 326.976 371.681 326.628C371.586 326.28 371.562 325.916 371.609 325.559L381.501 251.165C381.536 250.906 381.522 250.643 381.46 250.389L371.518 209.416C371.424 209.039 371.413 208.645 371.486 208.262C371.56 207.88 371.716 207.518 371.943 207.202C373.485 205.079 378.768 200.131 394.482 200.037H394.499C395.022 200.038 395.534 200.188 395.974 200.47C396.415 200.753 396.764 201.156 396.982 201.632L399.078 206.237C399.234 206.579 399.478 206.874 399.785 207.091C402.67 209.13 416.647 220.581 408.44 245.719C400.374 270.427 390.039 318.395 388.049 327.76C387.923 328.368 387.589 328.915 387.106 329.307C386.623 329.698 386.019 329.912 385.397 329.911C385.29 329.911 385.183 329.905 385.077 329.893Z" fill="#2F2E41"/>
<path d="M406.516 138.065C403.347 140.247 399.585 141.408 395.736 141.392C397.109 142.343 398.672 142.986 400.318 143.275C395.2 144.372 389.911 144.401 384.781 143.362C383.641 143.18 382.541 142.802 381.529 142.247C381.025 141.965 380.585 141.581 380.239 141.119C379.894 140.657 379.649 140.128 379.521 139.565C379.181 137.62 380.698 135.853 382.275 134.662C384.689 132.866 387.473 131.629 390.424 131.04C393.376 130.451 396.422 130.524 399.342 131.255C401.248 131.748 403.158 132.579 404.396 134.109C405.635 135.638 406.001 137.995 404.822 139.57L406.516 138.065Z" fill="#2F2E41"/>
<path d="M397.256 128.429C395.672 127.902 394.042 127.349 392.786 126.25C391.531 125.15 390.734 123.351 391.298 121.782C391.842 120.269 393.498 119.386 395.103 119.267C396.707 119.148 398.286 119.644 399.818 120.134C399.125 119.088 398.41 117.061 397.783 114.922C396.353 110.042 402.312 105.586 407.389 105.954C407.538 105.965 407.683 105.98 407.823 106.001C412.942 106.747 415.598 108.697 419.173 112.432C423.646 117.104 425.985 123.408 427.552 129.681C429.118 135.953 430.038 142.407 432.241 148.485C434.444 154.564 438.16 160.406 443.843 163.5C446.955 165.139 450.458 165.891 453.97 165.675C457.481 165.459 460.866 164.283 463.753 162.275C464.146 164.944 463.904 167.668 463.046 170.227C462.188 172.785 460.739 175.106 458.816 177C456.892 178.894 454.549 180.309 451.976 181.13C449.403 181.951 446.672 182.155 444.005 181.724C436.669 180.541 430.792 174.639 427.653 167.911C424.515 161.183 423.658 153.652 422.87 146.271C422.082 138.891 421.285 131.362 418.248 124.588C417.019 121.846 415.21 119.055 411.976 118.618C411.132 118.48 410.266 118.625 409.512 119.028C408.758 119.432 408.158 120.072 407.805 120.851C406.383 124.288 411.247 127.198 410.001 130.474C409.731 131.108 409.285 131.651 408.715 132.039C408.145 132.428 407.476 132.645 406.787 132.666C404.436 132.82 402.504 131.474 400.685 130.175C396.963 127.517 397.256 128.429 397.256 128.429Z" fill="#2F2E41"/>
<path d="M478.435 347H348.561C348.412 347 348.268 346.941 348.162 346.835C348.056 346.729 347.997 346.586 347.997 346.436C347.997 346.286 348.056 346.143 348.162 346.037C348.268 345.931 348.412 345.872 348.561 345.872H478.435C478.585 345.872 478.729 345.931 478.835 346.037C478.941 346.143 479 346.286 479 346.436C479 346.586 478.941 346.729 478.835 346.835C478.729 346.941 478.585 347 478.435 347Z" fill="#3F3D56"/>
</g>
<defs>
<clipPath id="clip0_2_9">
<rect width="479" height="347" fill="white"/>
</clipPath>
</defs>
</svg>
