<svg width="407" height="251" viewBox="0 0 407 251" fill="none" xmlns="http://www.w3.org/2000/svg">
<g clip-path="url(#clip0_105_4)">
<path d="M41.0811 230.305C42.7708 230.898 44.5849 231.047 46.3488 230.736C48.1126 230.426 49.7667 229.667 51.1517 228.532C54.679 225.574 55.7851 220.701 56.6847 216.188L59.3462 202.84L53.7741 206.674C49.7667 209.431 45.6693 212.276 42.8949 216.27C40.1204 220.263 38.91 225.715 41.1385 230.036" fill="#E6E6E6"/>
<path d="M41.9414 247.395C41.2401 242.289 40.5185 237.117 41.0116 231.957C41.4486 227.374 42.848 222.898 45.6968 219.227C47.2089 217.282 49.0489 215.616 51.1341 214.303C51.6777 213.96 52.1781 214.821 51.6368 215.163C48.0289 217.441 45.2382 220.805 43.6672 224.771C41.9321 229.18 41.6535 233.987 41.9524 238.672C42.133 241.505 42.5169 244.319 42.9024 247.13C42.9329 247.257 42.9139 247.391 42.8493 247.504C42.7847 247.618 42.6793 247.703 42.5544 247.742C42.4271 247.776 42.2913 247.759 42.1766 247.694C42.0619 247.629 41.9775 247.521 41.9418 247.394L41.9414 247.395Z" fill="#F2F2F2"/>
<path d="M46.9896 239.202C47.7142 240.303 48.7103 241.199 49.8819 241.803C51.0535 242.407 52.3611 242.7 53.6788 242.653C57.0659 242.492 59.8885 240.131 62.4292 237.889L69.9455 231.257L64.9711 231.019C61.3938 230.848 57.7241 230.688 54.3167 231.791C50.9094 232.895 47.767 235.547 47.144 239.071" fill="#E6E6E6"/>
<path d="M39.9591 250.33C43.3355 244.36 47.2516 237.725 54.2496 235.604C56.1953 235.017 58.2354 234.806 60.2601 234.984C60.8983 235.039 60.7389 236.022 60.102 235.967C56.708 235.686 53.3205 236.581 50.5099 238.503C47.8052 240.343 45.6992 242.901 43.917 245.612C42.8252 247.274 41.8472 249.006 40.8693 250.735C40.5568 251.288 39.643 250.889 39.9591 250.33Z" fill="#F2F2F2"/>
<path d="M379.374 237.412C378.392 238.291 377.2 238.903 375.913 239.188C374.626 239.473 373.287 239.422 372.025 239.04C368.791 238.02 366.666 235.016 364.784 232.199L359.213 223.868L364.083 224.909C367.585 225.657 371.174 226.439 374.186 228.376C377.198 230.313 379.558 233.68 379.259 237.246" fill="#E6E6E6"/>
<path d="M383.326 249.966C381.588 243.332 379.499 235.917 373.276 232.08C371.545 231.015 369.627 230.29 367.624 229.945C366.993 229.835 366.895 230.826 367.525 230.936C370.878 231.531 373.924 233.262 376.15 235.837C378.294 238.307 379.676 241.317 380.706 244.394C381.336 246.279 381.839 248.203 382.342 250.125C382.503 250.739 383.488 250.587 383.326 249.966Z" fill="#F2F2F2"/>
<path d="M314.901 152.82H201.06C200.151 152.819 199.279 152.457 198.637 151.815C197.994 151.173 197.632 150.302 197.631 149.394V111.018C197.632 110.11 197.994 109.239 198.637 108.596C199.279 107.954 200.151 107.593 201.06 107.592H314.901C315.81 107.593 316.682 107.954 317.325 108.596C317.968 109.239 318.329 110.11 318.33 111.018V149.394C318.329 150.302 317.968 151.173 317.325 151.815C316.682 152.458 315.81 152.819 314.901 152.82Z" fill="#F1F1F1"/>
<path d="M245.636 117.871H215.462V121.297H245.636V117.871Z" fill="white"/>
<path d="M285.412 121.982C286.549 121.982 287.47 121.062 287.47 119.927C287.47 118.791 286.549 117.871 285.412 117.871C284.276 117.871 283.355 118.791 283.355 119.927C283.355 121.062 284.276 121.982 285.412 121.982Z" fill="white"/>
<path d="M292.27 121.982C293.407 121.982 294.328 121.062 294.328 119.927C294.328 118.791 293.407 117.871 292.27 117.871C291.134 117.871 290.213 118.791 290.213 119.927C290.213 121.062 291.134 121.982 292.27 121.982Z" fill="white"/>
<path d="M299.128 121.982C300.264 121.982 301.186 121.062 301.186 119.927C301.186 118.791 300.264 117.871 299.128 117.871C297.992 117.871 297.071 118.791 297.071 119.927C297.071 121.062 297.992 121.982 299.128 121.982Z" fill="white"/>
<path d="M314.901 201.475H201.06C200.151 201.474 199.279 201.112 198.637 200.47C197.994 199.828 197.632 198.957 197.631 198.048V159.673C197.632 158.764 197.994 157.893 198.637 157.251C199.279 156.609 200.151 156.247 201.06 156.246H314.901C315.81 156.247 316.682 156.609 317.325 157.251C317.968 157.893 318.329 158.764 318.33 159.673V198.048C318.329 198.957 317.968 199.828 317.325 200.47C316.682 201.112 315.81 201.474 314.901 201.475Z" fill="#F1F1F1"/>
<path d="M245.636 166.525H215.462V169.952H245.636V166.525Z" fill="white"/>
<path d="M285.412 170.637C286.549 170.637 287.47 169.717 287.47 168.581C287.47 167.446 286.549 166.525 285.412 166.525C284.276 166.525 283.355 167.446 283.355 168.581C283.355 169.717 284.276 170.637 285.412 170.637Z" fill="white"/>
<path d="M292.27 170.637C293.407 170.637 294.328 169.717 294.328 168.581C294.328 167.446 293.407 166.525 292.27 166.525C291.134 166.525 290.213 167.446 290.213 168.581C290.213 169.717 291.134 170.637 292.27 170.637Z" fill="white"/>
<path d="M299.128 170.637C300.264 170.637 301.186 169.717 301.186 168.581C301.186 167.446 300.264 166.525 299.128 166.525C297.992 166.525 297.071 167.446 297.071 168.581C297.071 169.717 297.992 170.637 299.128 170.637Z" fill="white"/>
<path d="M314.901 250.129H201.06C200.151 250.128 199.279 249.767 198.637 249.125C197.994 248.482 197.632 247.611 197.631 246.703V208.327C197.632 207.419 197.994 206.548 198.637 205.906C199.279 205.263 200.151 204.902 201.06 204.901H314.901C315.81 204.902 316.682 205.263 317.325 205.906C317.968 206.548 318.329 207.419 318.33 208.327V246.703C318.329 247.611 317.968 248.482 317.325 249.125C316.682 249.767 315.81 250.128 314.901 250.129Z" fill="#F1F1F1"/>
<path d="M245.636 215.18H215.462V218.607H245.636V215.18Z" fill="white"/>
<path d="M285.412 219.292C286.549 219.292 287.47 218.371 287.47 217.236C287.47 216.101 286.549 215.18 285.412 215.18C284.276 215.18 283.355 216.101 283.355 217.236C283.355 218.371 284.276 219.292 285.412 219.292Z" fill="white"/>
<path d="M292.27 219.292C293.407 219.292 294.328 218.371 294.328 217.236C294.328 216.101 293.407 215.18 292.27 215.18C291.134 215.18 290.213 216.101 290.213 217.236C290.213 218.371 291.134 219.292 292.27 219.292Z" fill="white"/>
<path d="M299.128 219.292C300.264 219.292 301.186 218.371 301.186 217.236C301.186 216.101 300.264 215.18 299.128 215.18C297.992 215.18 297.071 216.101 297.071 217.236C297.071 218.371 297.992 219.292 299.128 219.292Z" fill="white"/>
<path d="M271.984 70.1181L271.858 70.0252L271.855 70.0229C271.693 69.9024 271.509 69.815 271.312 69.7658C271.116 69.7166 270.912 69.7064 270.712 69.7359C270.512 69.7655 270.32 69.8341 270.146 69.9379C269.973 70.0417 269.821 70.1786 269.701 70.3409L244.076 104.816H241.257V104.154C241.257 103.991 241.192 103.834 241.077 103.719C240.961 103.603 240.805 103.538 240.641 103.538H238.959C238.796 103.538 238.639 103.603 238.524 103.719C238.408 103.834 238.343 103.991 238.343 104.154V104.816H237.37V104.154C237.37 103.991 237.305 103.834 237.189 103.719C237.074 103.603 236.917 103.538 236.754 103.538H235.072C234.908 103.538 234.751 103.603 234.636 103.719C234.52 103.834 234.455 103.991 234.455 104.154V104.816H233.485V104.154C233.485 103.991 233.42 103.834 233.305 103.719C233.189 103.603 233.032 103.538 232.869 103.538H231.187C231.024 103.538 230.867 103.603 230.751 103.719C230.636 103.834 230.571 103.991 230.571 104.154V104.816H229.597V104.154C229.597 103.991 229.532 103.834 229.417 103.719C229.301 103.603 229.145 103.538 228.981 103.538H227.299C227.136 103.538 226.979 103.603 226.864 103.719C226.748 103.834 226.683 103.991 226.683 104.154V104.816H225.713V104.154C225.713 103.991 225.648 103.834 225.532 103.719C225.417 103.603 225.26 103.538 225.097 103.538H223.415C223.334 103.538 223.254 103.554 223.179 103.585C223.104 103.616 223.036 103.661 222.979 103.719C222.922 103.776 222.877 103.844 222.846 103.918C222.815 103.993 222.799 104.073 222.799 104.154V104.816H221.825V104.154C221.825 103.991 221.76 103.834 221.645 103.719C221.529 103.603 221.372 103.538 221.209 103.538H219.527C219.364 103.538 219.207 103.603 219.091 103.719C218.976 103.834 218.911 103.991 218.911 104.154V104.816H217.938V104.154C217.938 103.991 217.873 103.834 217.757 103.719C217.642 103.603 217.485 103.538 217.321 103.538H215.639C215.476 103.538 215.319 103.603 215.204 103.719C215.088 103.834 215.023 103.991 215.023 104.154V104.816H214.053V104.154C214.053 103.991 213.988 103.834 213.873 103.719C213.757 103.603 213.6 103.538 213.437 103.538H211.755C211.592 103.538 211.435 103.603 211.319 103.719C211.204 103.834 211.139 103.991 211.139 104.154V104.816H210.165V104.154C210.165 103.991 210.1 103.834 209.985 103.719C209.869 103.603 209.713 103.538 209.549 103.538H207.867C207.704 103.538 207.547 103.603 207.432 103.719C207.316 103.834 207.251 103.991 207.251 104.154V104.816H206.281V104.154C206.281 103.991 206.216 103.834 206.1 103.719C205.985 103.603 205.828 103.538 205.665 103.538H203.983C203.819 103.538 203.663 103.603 203.547 103.719C203.432 103.834 203.367 103.991 203.367 104.154V104.816H202.147C201.944 104.816 201.744 104.855 201.557 104.933C201.37 105.01 201.201 105.124 201.058 105.266C200.915 105.409 200.801 105.579 200.724 105.766C200.646 105.953 200.606 106.153 200.606 106.355V107.823C200.606 108.025 200.646 108.225 200.724 108.412C200.801 108.599 200.915 108.769 201.058 108.911C201.201 109.054 201.37 109.168 201.557 109.245C201.744 109.322 201.944 109.362 202.147 109.362H243.821C244.349 109.362 244.86 109.18 245.269 108.847C245.679 108.514 245.961 108.051 246.068 107.534L246.084 107.546L272.3 72.2745L272.303 72.2714C272.546 71.9437 272.649 71.5327 272.59 71.1289C272.53 70.7251 272.312 70.3615 271.984 70.1181Z" fill="#3F3D56"/>
<path d="M110.042 237.056L115.219 239.704L127.9 221.012L120.26 217.105L110.042 237.056Z" fill="#FFB7B7"/>
<path d="M109.587 234.693L119.781 239.906L119.782 239.906C121.504 240.787 122.806 242.316 123.401 244.156C123.996 245.997 123.835 247.998 122.953 249.72L122.845 249.931L106.154 241.395L109.587 234.693Z" fill="#2F2E41"/>
<path d="M169.828 244.298H175.643L178.409 221.886H169.827L169.828 244.298Z" fill="#FFB7B7"/>
<path d="M168.344 242.401L179.796 242.401H179.796C181.732 242.401 183.588 243.169 184.957 244.537C186.325 245.904 187.094 247.759 187.094 249.693V249.93L168.345 249.931L168.344 242.401Z" fill="#2F2E41"/>
<path d="M142.628 61.4876C142.628 61.4876 138.734 58.5065 138.734 65.7882L138.119 89.8511L144.985 112.583L148.981 105.21L147.342 89.2368L142.628 61.4876Z" fill="#2F2E41"/>
<path d="M184.282 127.304C184.282 127.304 188.797 149.278 183.077 167.311L179.917 236.646L168.327 235.743L164.263 184.306L160.35 158.738L152.222 182.05L125.431 231.382L113.089 221.756C113.089 221.756 126.766 184.465 136.87 176.636L141.937 118.962L184.282 127.304Z" fill="#2F2E41"/>
<path d="M182.139 25.238C185.64 18.8389 183.286 10.8157 176.882 7.31764C170.478 3.8196 162.449 6.17136 158.949 12.5704C155.448 18.9695 157.801 26.9927 164.205 30.4907C170.609 33.9888 178.638 31.637 182.139 25.238Z" fill="#FFB7B7"/>
<path d="M169.609 21.705C171.193 21.9109 172.388 20.2914 172.942 18.7942C173.496 17.2971 173.918 15.5542 175.296 14.7455C177.177 13.6406 179.585 14.9695 181.737 14.6049C184.167 14.1933 185.746 11.6199 185.87 9.16019C185.994 6.70048 185.015 4.33475 184.053 2.06692L183.718 4.88532C183.763 3.9301 183.562 2.97934 183.134 2.124C182.706 1.26866 182.065 0.537341 181.274 0L181.706 4.13556C181.614 3.565 181.41 3.01822 181.106 2.5266C180.802 2.03497 180.404 1.60818 179.934 1.27073C179.465 0.933273 178.933 0.691792 178.37 0.560147C177.807 0.428502 177.223 0.409283 176.653 0.503593L176.721 2.96772C173.914 2.63423 171.083 2.30027 168.268 2.55434C165.453 2.80841 162.619 3.69838 160.485 5.55085C157.294 8.32186 156.128 12.8847 156.519 17.0912C156.911 21.2978 158.648 25.2496 160.46 29.067C160.915 30.0275 161.546 31.1113 162.602 31.2337C163.552 31.3436 164.42 30.5506 164.716 29.6422C164.943 28.7102 164.934 27.7361 164.69 26.8084C164.423 25.3905 164.086 23.9412 164.337 22.5204C164.588 21.0996 165.611 19.6956 167.045 19.5215C168.478 19.3474 169.944 20.9845 169.255 22.2523L169.609 21.705Z" fill="#2F2E41"/>
<path d="M185.099 133.18L140.989 130.336L144.309 116.592L184.625 125.597L185.099 133.18Z" fill="#CBCBCB"/>
<path d="M157.896 36.9127L160.663 33.0743C160.663 33.0743 163.755 34.1245 172.037 38.2438L172.622 41.84L186.998 130.195L160.868 129.069L153.752 128.917L151.423 123.701L148.552 128.807L141.603 128.659L134.532 124.563L141.501 103.265L143.755 83.8098L140.271 65.481C140.271 65.481 135.887 48.6501 152.772 39.575L157.896 36.9127Z" fill="#2F2E41"/>
<path d="M216.792 103.798C216.152 103.96 215.484 103.981 214.836 103.857C214.187 103.734 213.574 103.47 213.038 103.084C212.503 102.698 212.058 102.2 211.736 101.624C211.415 101.048 211.223 100.408 211.176 99.75L195.673 95.6007L201.909 90.0675L215.675 94.856C216.786 94.8493 217.862 95.2502 218.697 95.9828C219.533 96.7154 220.07 97.7288 220.208 98.8311C220.346 99.9333 220.074 101.048 219.445 101.963C218.815 102.879 217.871 103.531 216.792 103.798Z" fill="#FFB7B7"/>
<path d="M209.849 101.455C209.523 101.633 209.163 101.74 208.793 101.769C208.423 101.798 208.051 101.75 207.701 101.626L182.199 91.9538C175.977 89.75 170.768 85.363 167.541 79.6089L156.906 60.6518C156.16 59.8188 155.585 58.8468 155.214 57.7915C154.844 56.7362 154.685 55.6183 154.748 54.5017C154.81 53.385 155.092 52.2917 155.578 51.2842C156.064 50.2767 156.743 49.3747 157.578 48.63C158.413 47.8853 159.387 47.3125 160.444 46.9442C161.501 46.5759 162.62 46.4195 163.737 46.4839C164.854 46.5483 165.948 46.8322 166.955 47.3194C167.963 47.8066 168.864 48.4876 169.608 49.3233L188.015 78.4769L211.181 92.0483C211.635 92.346 211.986 92.7758 212.188 93.2797C212.39 93.7835 212.432 94.3371 212.308 94.8655L211.156 99.7434C211.032 100.266 210.752 100.739 210.352 101.099C210.199 101.237 210.03 101.357 209.849 101.455Z" fill="#2F2E41"/>
<path d="M406.569 250.903H0.430688C0.316462 250.903 0.206915 250.858 0.126145 250.777C0.0453756 250.697 0 250.587 0 250.473C0 250.359 0.0453756 250.249 0.126145 250.169C0.206915 250.088 0.316462 250.043 0.430688 250.043H406.569C406.684 250.043 406.793 250.088 406.874 250.169C406.955 250.249 407 250.359 407 250.473C407 250.587 406.955 250.697 406.874 250.777C406.793 250.858 406.684 250.903 406.569 250.903Z" fill="#CBCBCB"/>
</g>
<defs>
<clipPath id="clip0_105_4">
<rect width="407" height="251" fill="white"/>
</clipPath>
</defs>
</svg>
